<svg width="5015" height="190" viewBox="0 0 5015 190" fill="none" xmlns="http://www.w3.org/2000/svg">
<path d="M21.375 72.75V104.312C21.375 108.75 19.4062 111.062 15.8125 111.062C12.4375 111.062 10.25 108.969 10.1875 105.375H0.8125C0.78125 114.312 7.1875 118.625 15.375 118.625C24.4688 118.625 30.6875 113.094 30.6875 104.312V72.75H21.375ZM36.5 108.5C36.5312 115.219 41.3125 118.656 47.8125 118.625C52.8438 118.656 56.0938 116.438 57.75 113.312H58V118H66.75V95.125C66.7812 86.9375 59.7812 83.625 52.375 83.625C43.375 83.625 38.25 88.25 37.6875 94.125H46.5C47 91.8125 48.9688 90.4062 52.125 90.375C55.5938 90.4062 57.5312 92.0312 57.5625 94.875V97.625C56.125 97.6875 51.5625 97.9062 49.125 98.0625C42.5938 98.4688 36.5312 100.938 36.5 108.5ZM45.375 108.25C45.375 105.625 47.4062 104.094 50.625 103.812C52.1875 103.688 56.1562 103.469 57.5625 103.406V105.875C57.5938 109.469 54.6562 112.219 50.4375 112.25C47.4688 112.219 45.375 110.844 45.375 108.25ZM104.062 84.0625H94.25L87.125 108.438H86.75L79.625 84.0625H69.875L81.75 118H92.125L104.062 84.0625ZM106 108.5C106.031 115.219 110.812 118.656 117.312 118.625C122.344 118.656 125.594 116.438 127.25 113.312H127.5V118H136.25V95.125C136.281 86.9375 129.281 83.625 121.875 83.625C112.875 83.625 107.75 88.25 107.188 94.125H116C116.5 91.8125 118.469 90.4062 121.625 90.375C125.094 90.4062 127.031 92.0312 127.062 94.875V97.625C125.625 97.6875 121.062 97.9062 118.625 98.0625C112.094 98.4688 106.031 100.938 106 108.5ZM114.875 108.25C114.875 105.625 116.906 104.094 120.125 103.812C121.688 103.688 125.656 103.469 127.062 103.406V105.875C127.094 109.469 124.156 112.219 119.938 112.25C116.969 112.219 114.875 110.844 114.875 108.25ZM162.688 94.125H171.375C170.875 87.6875 165.562 83.625 157 83.625C148.25 83.625 142.656 87.6875 142.688 94.1875C142.656 99.2188 145.969 102.531 152.438 103.812L158.062 104.938C161.25 105.594 162.688 106.688 162.688 108.438C162.688 110.625 160.438 111.969 157.062 112C153.656 111.969 151.5 110.594 151.062 107.938H141.75C142.531 114.562 147.906 118.656 157.062 118.688C166.094 118.656 172.094 114.188 172.125 107.5C172.094 102.625 168.906 99.6875 162.312 98.3125L156.25 97.0625C153.031 96.4062 151.844 95.2188 151.875 93.6875C151.844 91.625 154.125 90.2188 157.125 90.1875C160.219 90.2188 162.281 91.75 162.688 94.125ZM193.062 118.688C202.062 118.656 207.719 113.375 208.125 105.688H199.438C198.844 109.281 196.438 111.312 193.188 111.312C188.688 111.312 185.812 107.562 185.812 101C185.812 94.5625 188.75 90.8438 193.188 90.8125C196.688 90.8438 198.875 93.1562 199.438 96.5H208.125C207.75 88.7188 201.812 83.625 193.062 83.625C182.781 83.625 176.406 90.75 176.438 101.125C176.406 111.469 182.656 118.656 193.062 118.688ZM213.875 118H223.125V98.6875C223.094 94.5312 226.188 91.625 230.375 91.625C231.656 91.625 233.438 91.8438 234.312 92.125V83.875C233.5 83.6875 232.312 83.5625 231.375 83.5625C227.562 83.5625 224.406 85.7812 223.188 89.9375H222.812V84.0625H213.875V118ZM238.812 118H248.062V84.0625H238.812V118ZM238.375 74.9375C238.375 77.5 240.656 79.625 243.438 79.625C246.188 79.625 248.469 77.5 248.438 74.9375C248.469 72.3125 246.188 70.2188 243.438 70.1875C240.656 70.2188 238.375 72.3125 238.375 74.9375ZM255.25 130.75H264.5V112.562H264.75C266.062 115.375 268.906 118.562 274.438 118.562C282.188 118.562 288.219 112.406 288.188 101.062C288.219 89.4375 281.938 83.625 274.438 83.625C268.719 83.625 266.031 87 264.75 89.75H264.375V84.0625H255.25V130.75ZM264.312 101C264.281 94.9062 266.875 91 271.5 91C276.281 91 278.781 95.0938 278.75 101C278.781 107 276.219 111.156 271.5 111.188C266.906 111.156 264.281 107.125 264.312 101ZM312.062 84.0625H305.688V75.9375H296.438V84.0625H291.75V91H296.438V108.875C296.375 115.469 300.938 118.469 307.625 118.438C309.906 118.469 311.562 118.281 312.562 118.125V110.812C311.438 110.906 309.812 111 308.875 111C307 110.938 305.656 110.281 305.688 107.562V91H312.062V84.0625Z" fill="white"/>
<path d="M366.562 80.5H380.438V118H389.75V80.5H403.625V72.75H366.562V80.5ZM410.812 130.75C417.969 130.719 421.688 127.219 423.625 121.75L436.875 84.0625H427.062L419.875 109.062H419.5L412.375 84.0625H402.688L414.875 118.938L414.312 120.375C413.188 123.312 411.719 123.5 409.875 123.5C408.719 123.5 407.312 123.469 406.125 123.375V130.562C407.312 130.688 409 130.719 410.812 130.75ZM441.375 130.75H450.625V112.562H450.875C452.188 115.375 455.031 118.562 460.562 118.562C468.312 118.562 474.344 112.406 474.312 101.062C474.344 89.4375 468.062 83.625 460.562 83.625C454.844 83.625 452.156 87 450.875 89.75H450.5V84.0625H441.375V130.75ZM450.438 101C450.406 94.9062 453 91 457.625 91C462.406 91 464.906 95.0938 464.875 101C464.906 107 462.344 111.156 457.625 111.188C453.031 111.156 450.406 107.125 450.438 101ZM495.688 118.688C504.062 118.656 509.688 114.594 511 108.312H502.188C501.281 110.344 499.031 111.719 495.875 111.75C491.094 111.719 488.062 108.562 488.062 103.438H511.25V100.812C511.25 89.25 504.219 83.625 495.312 83.625C485.375 83.625 478.906 90.7188 478.938 101.188C478.906 111.938 485.281 118.656 495.688 118.688ZM488.062 97.625C488.25 93.7188 491.25 90.5312 495.5 90.5625C499.625 90.5312 502.469 93.5 502.5 97.625H488.062ZM536.438 94.125H545.125C544.625 87.6875 539.312 83.625 530.75 83.625C522 83.625 516.406 87.6875 516.438 94.1875C516.406 99.2188 519.719 102.531 526.188 103.812L531.812 104.938C535 105.594 536.438 106.688 536.438 108.438C536.438 110.625 534.188 111.969 530.812 112C527.406 111.969 525.25 110.594 524.812 107.938H515.5C516.281 114.562 521.656 118.656 530.812 118.688C539.844 118.656 545.844 114.188 545.875 107.5C545.844 102.625 542.656 99.6875 536.062 98.3125L530 97.0625C526.781 96.4062 525.594 95.2188 525.625 93.6875C525.594 91.625 527.875 90.2188 530.875 90.1875C533.969 90.2188 536.031 91.75 536.438 94.125ZM566.812 118.688C575.812 118.656 581.469 113.375 581.875 105.688H573.188C572.594 109.281 570.188 111.312 566.938 111.312C562.438 111.312 559.562 107.562 559.562 101C559.562 94.5625 562.5 90.8438 566.938 90.8125C570.438 90.8438 572.625 93.1562 573.188 96.5H581.875C581.5 88.7188 575.562 83.625 566.812 83.625C556.531 83.625 550.156 90.75 550.188 101.125C550.156 111.469 556.406 118.656 566.812 118.688ZM587.625 118H596.875V98.6875C596.844 94.5312 599.938 91.625 604.125 91.625C605.406 91.625 607.188 91.8438 608.062 92.125V83.875C607.25 83.6875 606.062 83.5625 605.125 83.5625C601.312 83.5625 598.156 85.7812 596.938 89.9375H596.562V84.0625H587.625V118ZM612.562 118H621.812V84.0625H612.562V118ZM612.125 74.9375C612.125 77.5 614.406 79.625 617.188 79.625C619.938 79.625 622.219 77.5 622.188 74.9375C622.219 72.3125 619.938 70.2188 617.188 70.1875C614.406 70.2188 612.125 72.3125 612.125 74.9375ZM629 130.75H638.25V112.562H638.5C639.812 115.375 642.656 118.562 648.188 118.562C655.938 118.562 661.969 112.406 661.938 101.062C661.969 89.4375 655.688 83.625 648.188 83.625C642.469 83.625 639.781 87 638.5 89.75H638.125V84.0625H629V130.75ZM638.062 101C638.031 94.9062 640.625 91 645.25 91C650.031 91 652.531 95.0938 652.5 101C652.531 107 649.969 111.156 645.25 111.188C640.656 111.156 638.031 107.125 638.062 101ZM685.812 84.0625H679.438V75.9375H670.188V84.0625H665.5V91H670.188V108.875C670.125 115.469 674.688 118.469 681.375 118.438C683.656 118.469 685.312 118.281 686.312 118.125V110.812C685.188 110.906 683.562 111 682.625 111C680.75 110.938 679.406 110.281 679.438 107.562V91H685.812V84.0625Z" fill="white"/>
<path d="M742.312 118H751.688V101.938H758.844L767.5 118H777.875L768.25 100.406C773.406 98.1875 776.25 93.6875 776.25 87.5C776.25 78.5312 770.344 72.75 760.062 72.75H742.312V118ZM751.688 94.3125V80.4375H758.312C763.875 80.4688 766.594 82.9375 766.562 87.5C766.594 92.0312 763.875 94.3125 758.312 94.3125H751.688ZM797.375 118.688C805.75 118.656 811.375 114.594 812.688 108.312H803.875C802.969 110.344 800.719 111.719 797.562 111.75C792.781 111.719 789.75 108.562 789.75 103.438H812.938V100.812C812.938 89.25 805.906 83.625 797 83.625C787.062 83.625 780.594 90.7188 780.625 101.188C780.594 111.938 786.969 118.656 797.375 118.688ZM789.75 97.625C789.938 93.7188 792.938 90.5312 797.188 90.5625C801.312 90.5312 804.156 93.5 804.188 97.625H789.75ZM817.125 108.5C817.156 115.219 821.938 118.656 828.438 118.625C833.469 118.656 836.719 116.438 838.375 113.312H838.625V118H847.375V95.125C847.406 86.9375 840.406 83.625 833 83.625C824 83.625 818.875 88.25 818.312 94.125H827.125C827.625 91.8125 829.594 90.4062 832.75 90.375C836.219 90.4062 838.156 92.0312 838.188 94.875V97.625C836.75 97.6875 832.188 97.9062 829.75 98.0625C823.219 98.4688 817.156 100.938 817.125 108.5ZM826 108.25C826 105.625 828.031 104.094 831.25 103.812C832.812 103.688 836.781 103.469 838.188 103.406V105.875C838.219 109.469 835.281 112.219 831.062 112.25C828.094 112.219 826 110.844 826 108.25ZM869.688 118.688C878.688 118.656 884.344 113.375 884.75 105.688H876.062C875.469 109.281 873.062 111.312 869.812 111.312C865.312 111.312 862.438 107.562 862.438 101C862.438 94.5625 865.375 90.8438 869.812 90.8125C873.312 90.8438 875.5 93.1562 876.062 96.5H884.75C884.375 88.7188 878.438 83.625 869.688 83.625C859.406 83.625 853.031 90.75 853.062 101.125C853.031 111.469 859.281 118.656 869.688 118.688ZM908.375 84.0625H902V75.9375H892.75V84.0625H888.062V91H892.75V108.875C892.688 115.469 897.25 118.469 903.938 118.438C906.219 118.469 907.875 118.281 908.875 118.125V110.812C907.75 110.906 906.125 111 905.188 111C903.312 110.938 901.969 110.281 902 107.562V91H908.375V84.0625Z" fill="white"/>
<path d="M1003.06 72.75H993.75V101.5H993.312L973.562 72.75H965.312V118H974.688V89.25H975.062L994.938 118H1003.06V72.75ZM1025.88 118.688C1034.25 118.656 1039.88 114.594 1041.19 108.312H1032.38C1031.47 110.344 1029.22 111.719 1026.06 111.75C1021.28 111.719 1018.25 108.562 1018.25 103.438H1041.44V100.812C1041.44 89.25 1034.41 83.625 1025.5 83.625C1015.56 83.625 1009.09 90.7188 1009.12 101.188C1009.09 111.938 1015.47 118.656 1025.88 118.688ZM1018.25 97.625C1018.44 93.7188 1021.44 90.5312 1025.69 90.5625C1029.81 90.5312 1032.66 93.5 1032.69 97.625H1018.25ZM1054.38 84.0625H1044.81L1054.56 101L1044.44 118H1054.06L1060.69 106.188L1067.44 118H1076.94L1066.75 101L1076.69 84.0625H1067.12L1060.69 96L1054.38 84.0625ZM1099.81 84.0625H1093.44V75.9375H1084.19V84.0625H1079.5V91H1084.19V108.875C1084.12 115.469 1088.69 118.469 1095.38 118.438C1097.66 118.469 1099.31 118.281 1100.31 118.125V110.812C1099.19 110.906 1097.56 111 1096.62 111C1094.75 110.938 1093.41 110.281 1093.44 107.562V91H1099.81V84.0625ZM1111.06 118.562C1113.84 118.562 1116.25 116.219 1116.25 113.312C1116.25 110.438 1113.84 108.094 1111.06 108.125C1108.12 108.094 1105.75 110.438 1105.81 113.312C1105.75 116.219 1108.12 118.562 1111.06 118.562ZM1123.69 84.0625V119.562C1123.69 122.156 1122.56 123.469 1119.56 123.5C1119.16 123.469 1118.78 123.469 1118.31 123.438V130.688L1120.19 130.75C1128.12 130.719 1132.91 127.531 1132.94 119.688V84.0625H1123.69ZM1123.19 74.9375C1123.19 77.5 1125.47 79.625 1128.25 79.625C1131 79.625 1133.28 77.5 1133.25 74.9375C1133.28 72.3125 1131 70.2188 1128.25 70.1875C1125.47 70.2188 1123.19 72.3125 1123.19 74.9375ZM1159.5 94.125H1168.19C1167.69 87.6875 1162.38 83.625 1153.81 83.625C1145.06 83.625 1139.47 87.6875 1139.5 94.1875C1139.47 99.2188 1142.78 102.531 1149.25 103.812L1154.88 104.938C1158.06 105.594 1159.5 106.688 1159.5 108.438C1159.5 110.625 1157.25 111.969 1153.88 112C1150.47 111.969 1148.31 110.594 1147.88 107.938H1138.56C1139.34 114.562 1144.72 118.656 1153.88 118.688C1162.91 118.656 1168.91 114.188 1168.94 107.5C1168.91 102.625 1165.72 99.6875 1159.12 98.3125L1153.06 97.0625C1149.84 96.4062 1148.66 95.2188 1148.69 93.6875C1148.66 91.625 1150.94 90.2188 1153.94 90.1875C1157.03 90.2188 1159.09 91.75 1159.5 94.125Z" fill="white"/>
<path d="M1249.88 85.6875H1258.88C1258.75 77.6875 1252.16 72.125 1242.12 72.125C1232.22 72.125 1224.97 77.5938 1225 85.8125C1225 92.4375 1229.69 96.25 1237.31 98.125L1242.25 99.3125C1247.19 100.531 1250 101.969 1250 105.062C1250 108.438 1246.81 110.75 1241.88 110.75C1236.88 110.75 1233.25 108.438 1232.94 103.875H1223.81C1224.09 113.594 1231.06 118.656 1242 118.625C1253.03 118.656 1259.47 113.344 1259.5 105.062C1259.47 97.5312 1253.69 93.5938 1245.94 91.8125L1241.88 90.8125C1237.97 89.9375 1234.59 88.4688 1234.62 85.1875C1234.66 82.1875 1237.31 80 1242.06 80C1246.66 80 1249.5 82.0938 1249.88 85.6875ZM1296.94 84.0625H1287.12L1280 108.438H1279.62L1272.5 84.0625H1262.75L1274.62 118H1285L1296.94 84.0625ZM1315.69 118.688C1324.06 118.656 1329.69 114.594 1331 108.312H1322.19C1321.28 110.344 1319.03 111.719 1315.88 111.75C1311.09 111.719 1308.06 108.562 1308.06 103.438H1331.25V100.812C1331.25 89.25 1324.22 83.625 1315.31 83.625C1305.38 83.625 1298.91 90.7188 1298.94 101.188C1298.91 111.938 1305.28 118.656 1315.69 118.688ZM1308.06 97.625C1308.25 93.7188 1311.25 90.5312 1315.5 90.5625C1319.62 90.5312 1322.47 93.5 1322.5 97.625H1308.06ZM1346.31 72.75H1337.06V118H1346.31V72.75ZM1371.38 84.0625H1365V75.9375H1355.75V84.0625H1351.06V91H1355.75V108.875C1355.69 115.469 1360.25 118.469 1366.94 118.438C1369.22 118.469 1370.88 118.281 1371.88 118.125V110.812C1370.75 110.906 1369.12 111 1368.19 111C1366.31 110.938 1364.97 110.281 1365 107.562V91H1371.38V84.0625ZM1392.19 118.688C1400.56 118.656 1406.19 114.594 1407.5 108.312H1398.69C1397.78 110.344 1395.53 111.719 1392.38 111.75C1387.59 111.719 1384.56 108.562 1384.56 103.438H1407.75V100.812C1407.75 89.25 1400.72 83.625 1391.81 83.625C1381.88 83.625 1375.41 90.7188 1375.44 101.188C1375.41 111.938 1381.78 118.656 1392.19 118.688ZM1384.56 97.625C1384.75 93.7188 1387.75 90.5312 1392 90.5625C1396.12 90.5312 1398.97 93.5 1399 97.625H1384.56Z" fill="white"/>
<path d="M1488.88 85.6875H1497.88C1497.75 77.6875 1491.16 72.125 1481.12 72.125C1471.22 72.125 1463.97 77.5938 1464 85.8125C1464 92.4375 1468.69 96.25 1476.31 98.125L1481.25 99.3125C1486.19 100.531 1489 101.969 1489 105.062C1489 108.438 1485.81 110.75 1480.88 110.75C1475.88 110.75 1472.25 108.438 1471.94 103.875H1462.81C1463.09 113.594 1470.06 118.656 1481 118.625C1492.03 118.656 1498.47 113.344 1498.5 105.062C1498.47 97.5312 1492.69 93.5938 1484.94 91.8125L1480.88 90.8125C1476.97 89.9375 1473.59 88.4688 1473.62 85.1875C1473.66 82.1875 1476.31 80 1481.06 80C1485.66 80 1488.5 82.0938 1488.88 85.6875ZM1535.94 84.0625H1526.12L1519 108.438H1518.62L1511.5 84.0625H1501.75L1513.62 118H1524L1535.94 84.0625ZM1554.69 118.688C1563.06 118.656 1568.69 114.594 1570 108.312H1561.19C1560.28 110.344 1558.03 111.719 1554.88 111.75C1550.09 111.719 1547.06 108.562 1547.06 103.438H1570.25V100.812C1570.25 89.25 1563.22 83.625 1554.31 83.625C1544.38 83.625 1537.91 90.7188 1537.94 101.188C1537.91 111.938 1544.28 118.656 1554.69 118.688ZM1547.06 97.625C1547.25 93.7188 1550.25 90.5312 1554.5 90.5625C1558.62 90.5312 1561.47 93.5 1561.5 97.625H1547.06ZM1585.31 72.75H1576.06V118H1585.31V72.75ZM1610.38 84.0625H1604V75.9375H1594.75V84.0625H1590.06V91H1594.75V108.875C1594.69 115.469 1599.25 118.469 1605.94 118.438C1608.22 118.469 1609.88 118.281 1610.88 118.125V110.812C1609.75 110.906 1608.12 111 1607.19 111C1605.31 110.938 1603.97 110.281 1604 107.562V91H1610.38V84.0625ZM1631.19 118.688C1639.56 118.656 1645.19 114.594 1646.5 108.312H1637.69C1636.78 110.344 1634.53 111.719 1631.38 111.75C1626.59 111.719 1623.56 108.562 1623.56 103.438H1646.75V100.812C1646.75 89.25 1639.72 83.625 1630.81 83.625C1620.88 83.625 1614.41 90.7188 1614.44 101.188C1614.41 111.938 1620.78 118.656 1631.19 118.688ZM1623.56 97.625C1623.75 93.7188 1626.75 90.5312 1631 90.5625C1635.12 90.5312 1637.97 93.5 1638 97.625H1623.56ZM1652.75 118H1662.12V105.062L1666.88 99.3125L1679.44 118H1690.69L1673.62 93L1690.5 72.75H1679.19L1662.75 92.8125H1662.12V72.75H1652.75V118ZM1697.12 118H1706.38V84.0625H1697.12V118ZM1696.69 74.9375C1696.69 77.5 1698.97 79.625 1701.75 79.625C1704.5 79.625 1706.78 77.5 1706.75 74.9375C1706.78 72.3125 1704.5 70.2188 1701.75 70.1875C1698.97 70.2188 1696.69 72.3125 1696.69 74.9375ZM1731.44 84.0625H1725.06V75.9375H1715.81V84.0625H1711.12V91H1715.81V108.875C1715.75 115.469 1720.31 118.469 1727 118.438C1729.28 118.469 1730.94 118.281 1731.94 118.125V110.812C1730.81 110.906 1729.19 111 1728.25 111C1726.38 110.938 1725.03 110.281 1725.06 107.562V91H1731.44V84.0625Z" fill="white"/>
<path d="M1786.56 80.5H1800.44V118H1809.75V80.5H1823.62V72.75H1786.56V80.5ZM1823 108.5C1823.03 115.219 1827.81 118.656 1834.31 118.625C1839.34 118.656 1842.59 116.438 1844.25 113.312H1844.5V118H1853.25V95.125C1853.28 86.9375 1846.28 83.625 1838.88 83.625C1829.88 83.625 1824.75 88.25 1824.19 94.125H1833C1833.5 91.8125 1835.47 90.4062 1838.62 90.375C1842.09 90.4062 1844.03 92.0312 1844.06 94.875V97.625C1842.62 97.6875 1838.06 97.9062 1835.62 98.0625C1829.09 98.4688 1823.03 100.938 1823 108.5ZM1831.88 108.25C1831.88 105.625 1833.91 104.094 1837.12 103.812C1838.69 103.688 1842.66 103.469 1844.06 103.406V105.875C1844.09 109.469 1841.16 112.219 1836.94 112.25C1833.97 112.219 1831.88 110.844 1831.88 108.25ZM1860.31 118H1869.56V84.0625H1860.31V118ZM1859.88 74.9375C1859.88 77.5 1862.16 79.625 1864.94 79.625C1867.69 79.625 1869.97 77.5 1869.94 74.9375C1869.97 72.3125 1867.69 70.2188 1864.94 70.1875C1862.16 70.2188 1859.88 72.3125 1859.88 74.9375ZM1886 72.75H1876.75V118H1886V72.75ZM1899.88 118H1909.69L1915.56 96.4375H1916L1921.88 118H1931.62L1940.94 84.0625H1931.56L1926.31 106.875H1926L1920.38 84.0625H1911.19L1905.62 107H1905.31L1900 84.0625H1890.62L1899.88 118ZM1945.62 118H1954.88V84.0625H1945.62V118ZM1945.19 74.9375C1945.19 77.5 1947.47 79.625 1950.25 79.625C1953 79.625 1955.28 77.5 1955.25 74.9375C1955.28 72.3125 1953 70.2188 1950.25 70.1875C1947.47 70.2188 1945.19 72.3125 1945.19 74.9375ZM1971.31 98.375C1971.31 93.9062 1973.97 91.3125 1977.81 91.3125C1981.66 91.3125 1983.91 93.8125 1983.94 98V118H1993.12V96.375C1993.16 88.4688 1988.53 83.625 1981.44 83.625C1976.41 83.625 1972.78 86.0938 1971.25 90H1970.88V84.0625H1962.06V118H1971.31V98.375ZM2012.81 118.562C2018.34 118.562 2021.16 115.375 2022.44 112.562H2022.88V118H2032V72.75H2022.75V89.75H2022.44C2021.22 87 2018.5 83.625 2012.81 83.625C2005.31 83.625 1999 89.4375 1999 101.062C1999 112.406 2005.06 118.562 2012.81 118.562ZM2008.5 101C2008.47 95.0938 2010.97 91 2015.69 91C2020.34 91 2022.94 94.9062 2022.94 101C2022.94 107.125 2020.31 111.156 2015.69 111.188C2011 111.156 2008.47 107 2008.5 101ZM2069.88 88.5H2079.38C2078.12 78.0938 2070.25 72.125 2059.81 72.125C2047.88 72.125 2038.75 80.5938 2038.75 95.375C2038.75 110.094 2047.72 118.625 2059.81 118.625C2071.31 118.625 2078.34 111 2079.38 102.625L2069.88 102.562C2068.97 107.469 2065.09 110.281 2059.94 110.312C2053.03 110.281 2048.31 105.125 2048.31 95.375C2048.31 85.8438 2052.97 80.4688 2060 80.4375C2065.28 80.4688 2069.12 83.5 2069.88 88.5ZM2110.5 85.6875H2119.5C2119.38 77.6875 2112.78 72.125 2102.75 72.125C2092.84 72.125 2085.59 77.5938 2085.62 85.8125C2085.62 92.4375 2090.31 96.25 2097.94 98.125L2102.88 99.3125C2107.81 100.531 2110.62 101.969 2110.62 105.062C2110.62 108.438 2107.44 110.75 2102.5 110.75C2097.5 110.75 2093.88 108.438 2093.56 103.875H2084.44C2084.72 113.594 2091.69 118.656 2102.62 118.625C2113.66 118.656 2120.09 113.344 2120.12 105.062C2120.09 97.5312 2114.31 93.5938 2106.56 91.8125L2102.5 90.8125C2098.59 89.9375 2095.22 88.4688 2095.25 85.1875C2095.28 82.1875 2097.94 80 2102.69 80C2107.28 80 2110.12 82.0938 2110.5 85.6875ZM2150.81 85.6875H2159.81C2159.69 77.6875 2153.09 72.125 2143.06 72.125C2133.16 72.125 2125.91 77.5938 2125.94 85.8125C2125.94 92.4375 2130.62 96.25 2138.25 98.125L2143.19 99.3125C2148.12 100.531 2150.94 101.969 2150.94 105.062C2150.94 108.438 2147.75 110.75 2142.81 110.75C2137.81 110.75 2134.19 108.438 2133.88 103.875H2124.75C2125.03 113.594 2132 118.656 2142.94 118.625C2153.97 118.656 2160.41 113.344 2160.44 105.062C2160.41 97.5312 2154.62 93.5938 2146.88 91.8125L2142.81 90.8125C2138.91 89.9375 2135.53 88.4688 2135.56 85.1875C2135.59 82.1875 2138.25 80 2143 80C2147.59 80 2150.44 82.0938 2150.81 85.6875Z" fill="white"/>
<path d="M2224.88 118L2228.28 107.562H2244.66L2248.06 118H2258.12L2242.5 72.75H2230.44L2214.75 118H2224.88ZM2230.66 100.25L2236.31 82.9375H2236.62L2242.28 100.25H2230.66ZM2281.69 94.125H2290.38C2289.88 87.6875 2284.56 83.625 2276 83.625C2267.25 83.625 2261.66 87.6875 2261.69 94.1875C2261.66 99.2188 2264.97 102.531 2271.44 103.812L2277.06 104.938C2280.25 105.594 2281.69 106.688 2281.69 108.438C2281.69 110.625 2279.44 111.969 2276.06 112C2272.66 111.969 2270.5 110.594 2270.06 107.938H2260.75C2261.53 114.562 2266.91 118.656 2276.06 118.688C2285.09 118.656 2291.09 114.188 2291.12 107.5C2291.09 102.625 2287.91 99.6875 2281.31 98.3125L2275.25 97.0625C2272.03 96.4062 2270.84 95.2188 2270.88 93.6875C2270.84 91.625 2273.12 90.2188 2276.12 90.1875C2279.22 90.2188 2281.28 91.75 2281.69 94.125ZM2314.69 84.0625H2308.31V75.9375H2299.06V84.0625H2294.38V91H2299.06V108.875C2299 115.469 2303.56 118.469 2310.25 118.438C2312.53 118.469 2314.19 118.281 2315.19 118.125V110.812C2314.06 110.906 2312.44 111 2311.5 111C2309.62 110.938 2308.28 110.281 2308.31 107.562V91H2314.69V84.0625ZM2320.5 118H2329.75V98.6875C2329.72 94.5312 2332.81 91.625 2337 91.625C2338.28 91.625 2340.06 91.8438 2340.94 92.125V83.875C2340.12 83.6875 2338.94 83.5625 2338 83.5625C2334.19 83.5625 2331.03 85.7812 2329.81 89.9375H2329.44V84.0625H2320.5V118ZM2359.62 118.688C2369.91 118.656 2376.28 111.625 2376.31 101.125C2376.28 90.6562 2369.91 83.625 2359.62 83.625C2349.38 83.625 2342.97 90.6562 2343 101.125C2342.97 111.625 2349.38 118.656 2359.62 118.688ZM2352.38 101.125C2352.38 95.1562 2354.84 90.6875 2359.69 90.6875C2364.41 90.6875 2366.91 95.1562 2366.88 101.125C2366.91 107.062 2364.41 111.469 2359.69 111.5C2354.84 111.469 2352.38 107.062 2352.38 101.125Z" fill="white"/>
<path d="M2432.31 118H2441.69V99.25H2460.19V91.5H2441.69V80.5H2462.12V72.75H2432.31V118ZM2467.56 118H2476.81V98.6875C2476.78 94.5312 2479.88 91.625 2484.06 91.625C2485.34 91.625 2487.12 91.8438 2488 92.125V83.875C2487.19 83.6875 2486 83.5625 2485.06 83.5625C2481.25 83.5625 2478.09 85.7812 2476.88 89.9375H2476.5V84.0625H2467.56V118ZM2489.94 108.5C2489.97 115.219 2494.75 118.656 2501.25 118.625C2506.28 118.656 2509.53 116.438 2511.19 113.312H2511.44V118H2520.19V95.125C2520.22 86.9375 2513.22 83.625 2505.81 83.625C2496.81 83.625 2491.69 88.25 2491.12 94.125H2499.94C2500.44 91.8125 2502.41 90.4062 2505.56 90.375C2509.03 90.4062 2510.97 92.0312 2511 94.875V97.625C2509.56 97.6875 2505 97.9062 2502.56 98.0625C2496.03 98.4688 2489.97 100.938 2489.94 108.5ZM2498.81 108.25C2498.81 105.625 2500.84 104.094 2504.06 103.812C2505.62 103.688 2509.59 103.469 2511 103.406V105.875C2511.03 109.469 2508.09 112.219 2503.88 112.25C2500.91 112.219 2498.81 110.844 2498.81 108.25ZM2527.25 118H2536.5V97.625C2536.47 93.7812 2538.91 91.25 2542.06 91.25C2545.22 91.25 2547.34 93.4062 2547.31 96.75V118H2556.31V97.25C2556.28 93.6562 2558.34 91.25 2561.81 91.25C2564.84 91.25 2567.16 93.125 2567.12 97V118H2576.38V95.1875C2576.38 87.7812 2571.97 83.625 2565.69 83.625C2560.72 83.625 2556.84 86.1562 2555.44 90H2555.12C2554 86.0938 2550.53 83.625 2545.88 83.625C2541.31 83.625 2537.88 86.0312 2536.44 90H2536.06V84.0625H2527.25V118ZM2598.88 118.688C2607.25 118.656 2612.88 114.594 2614.19 108.312H2605.38C2604.47 110.344 2602.22 111.719 2599.06 111.75C2594.28 111.719 2591.25 108.562 2591.25 103.438H2614.44V100.812C2614.44 89.25 2607.41 83.625 2598.5 83.625C2588.56 83.625 2582.09 90.7188 2582.12 101.188C2582.09 111.938 2588.47 118.656 2598.88 118.688ZM2591.25 97.625C2591.44 93.7188 2594.44 90.5312 2598.69 90.5625C2602.81 90.5312 2605.66 93.5 2605.69 97.625H2591.25ZM2620.25 118H2629.5V98.6875C2629.47 94.5312 2632.56 91.625 2636.75 91.625C2638.03 91.625 2639.81 91.8438 2640.69 92.125V83.875C2639.88 83.6875 2638.69 83.5625 2637.75 83.5625C2633.94 83.5625 2630.78 85.7812 2629.56 89.9375H2629.19V84.0625H2620.25V118ZM2660.12 72.75V118H2669.25V88.25H2669.62L2681.44 117.812H2687.69L2699.5 88.375H2699.88V118H2709V72.75H2697.38L2684.81 103.438H2684.31L2671.75 72.75H2660.12ZM2731.69 118.688C2741.97 118.656 2748.34 111.625 2748.38 101.125C2748.34 90.6562 2741.97 83.625 2731.69 83.625C2721.44 83.625 2715.03 90.6562 2715.06 101.125C2715.03 111.625 2721.44 118.656 2731.69 118.688ZM2724.44 101.125C2724.44 95.1562 2726.91 90.6875 2731.75 90.6875C2736.47 90.6875 2738.97 95.1562 2738.94 101.125C2738.97 107.062 2736.47 111.469 2731.75 111.5C2726.91 111.469 2724.44 107.062 2724.44 101.125ZM2772.06 84.0625H2765.69V75.9375H2756.44V84.0625H2751.75V91H2756.44V108.875C2756.38 115.469 2760.94 118.469 2767.62 118.438C2769.91 118.469 2771.56 118.281 2772.56 118.125V110.812C2771.44 110.906 2769.81 111 2768.88 111C2767 110.938 2765.66 110.281 2765.69 107.562V91H2772.06V84.0625ZM2777.88 118H2787.12V84.0625H2777.88V118ZM2777.44 74.9375C2777.44 77.5 2779.72 79.625 2782.5 79.625C2785.25 79.625 2787.53 77.5 2787.5 74.9375C2787.53 72.3125 2785.25 70.2188 2782.5 70.1875C2779.72 70.2188 2777.44 72.3125 2777.44 74.9375ZM2809.56 118.688C2819.84 118.656 2826.22 111.625 2826.25 101.125C2826.22 90.6562 2819.84 83.625 2809.56 83.625C2799.31 83.625 2792.91 90.6562 2792.94 101.125C2792.91 111.625 2799.31 118.656 2809.56 118.688ZM2802.31 101.125C2802.31 95.1562 2804.78 90.6875 2809.62 90.6875C2814.34 90.6875 2816.84 95.1562 2816.81 101.125C2816.84 107.062 2814.34 111.469 2809.62 111.5C2804.78 111.469 2802.31 107.062 2802.31 101.125ZM2841.31 98.375C2841.31 93.9062 2843.97 91.3125 2847.81 91.3125C2851.66 91.3125 2853.91 93.8125 2853.94 98V118H2863.12V96.375C2863.16 88.4688 2858.53 83.625 2851.44 83.625C2846.41 83.625 2842.78 86.0938 2841.25 90H2840.88V84.0625H2832.06V118H2841.31V98.375Z" fill="white"/>
<path d="M2921.31 118H2930.69V99.25H2949.19V91.5H2930.69V80.5H2951.12V72.75H2921.31V118ZM2957.12 118H2966.38V84.0625H2957.12V118ZM2956.69 74.9375C2956.69 77.5 2958.97 79.625 2961.75 79.625C2964.5 79.625 2966.78 77.5 2966.75 74.9375C2966.78 72.3125 2964.5 70.2188 2961.75 70.1875C2958.97 70.2188 2956.69 72.3125 2956.69 74.9375ZM2988.81 131.438C2998.47 131.438 3005.28 127.031 3005.31 118.375V84.0625H2996.12V89.75H2995.75C2994.5 87 2991.75 83.625 2986.06 83.625C2978.56 83.625 2972.25 89.3438 2972.25 100.812C2972.25 112.125 2978.41 117.531 2986.06 117.5C2991.53 117.531 2994.53 114.75 2995.75 112H2996.19V118.188C2996.16 122.906 2993.28 124.75 2989 124.75C2985.31 124.75 2982.75 123.531 2982.25 120.812H2973.12C2973.66 127.219 2979.44 131.438 2988.81 131.438ZM2981.75 100.938C2981.72 95.0938 2984.22 91 2988.94 91C2993.59 91 2996.19 94.9062 2996.19 100.938C2996.19 106.969 2993.56 110.531 2988.94 110.562C2984.25 110.531 2981.72 106.812 2981.75 100.938ZM3012.5 118H3021.75V97.625C3021.72 93.7812 3024.16 91.25 3027.31 91.25C3030.47 91.25 3032.59 93.4062 3032.56 96.75V118H3041.56V97.25C3041.53 93.6562 3043.59 91.25 3047.06 91.25C3050.09 91.25 3052.41 93.125 3052.38 97V118H3061.62V95.1875C3061.62 87.7812 3057.22 83.625 3050.94 83.625C3045.97 83.625 3042.09 86.1562 3040.69 90H3040.38C3039.25 86.0938 3035.78 83.625 3031.12 83.625C3026.56 83.625 3023.12 86.0312 3021.69 90H3021.31V84.0625H3012.5V118ZM3067.12 108.5C3067.16 115.219 3071.94 118.656 3078.44 118.625C3083.47 118.656 3086.72 116.438 3088.38 113.312H3088.62V118H3097.38V95.125C3097.41 86.9375 3090.41 83.625 3083 83.625C3074 83.625 3068.88 88.25 3068.31 94.125H3077.12C3077.62 91.8125 3079.59 90.4062 3082.75 90.375C3086.22 90.4062 3088.16 92.0312 3088.19 94.875V97.625C3086.75 97.6875 3082.19 97.9062 3079.75 98.0625C3073.22 98.4688 3067.16 100.938 3067.12 108.5ZM3076 108.25C3076 105.625 3078.03 104.094 3081.25 103.812C3082.81 103.688 3086.78 103.469 3088.19 103.406V105.875C3088.22 109.469 3085.28 112.219 3081.06 112.25C3078.09 112.219 3076 110.844 3076 108.25Z" fill="white"/>
<path d="M3155.31 118H3164.69V99.25H3183.19V91.5H3164.69V80.5H3185.12V72.75H3155.31V118ZM3200.38 72.75H3191.12V118H3200.38V72.75ZM3229.31 103.562C3229.31 108.188 3226.12 110.594 3222.75 110.625C3219.12 110.594 3216.81 108.094 3216.81 104.062V84.0625H3207.56V105.688C3207.56 113.625 3212.22 118.438 3219 118.438C3224.12 118.438 3227.78 115.812 3229.31 111.875H3229.69V118H3238.56V84.0625H3229.31V103.562ZM3263.62 84.0625H3257.25V75.9375H3248V84.0625H3243.31V91H3248V108.875C3247.94 115.469 3252.5 118.469 3259.19 118.438C3261.47 118.469 3263.12 118.281 3264.12 118.125V110.812C3263 110.906 3261.38 111 3260.44 111C3258.56 110.938 3257.22 110.281 3257.25 107.562V91H3263.62V84.0625ZM3287.31 84.0625H3280.94V75.9375H3271.69V84.0625H3267V91H3271.69V108.875C3271.62 115.469 3276.19 118.469 3282.88 118.438C3285.16 118.469 3286.81 118.281 3287.81 118.125V110.812C3286.69 110.906 3285.06 111 3284.12 111C3282.25 110.938 3280.91 110.281 3280.94 107.562V91H3287.31V84.0625ZM3308.12 118.688C3316.5 118.656 3322.12 114.594 3323.44 108.312H3314.62C3313.72 110.344 3311.47 111.719 3308.31 111.75C3303.53 111.719 3300.5 108.562 3300.5 103.438H3323.69V100.812C3323.69 89.25 3316.66 83.625 3307.75 83.625C3297.81 83.625 3291.34 90.7188 3291.38 101.188C3291.34 111.938 3297.72 118.656 3308.12 118.688ZM3300.5 97.625C3300.69 93.7188 3303.69 90.5312 3307.94 90.5625C3312.06 90.5312 3314.91 93.5 3314.94 97.625H3300.5ZM3329.5 118H3338.75V98.6875C3338.72 94.5312 3341.81 91.625 3346 91.625C3347.28 91.625 3349.06 91.8438 3349.94 92.125V83.875C3349.12 83.6875 3347.94 83.5625 3347 83.5625C3343.19 83.5625 3340.03 85.7812 3338.81 89.9375H3338.44V84.0625H3329.5V118Z" fill="white"/>
<path d="M3421.25 118C3435.06 118 3443.41 109.469 3443.38 95.3125C3443.41 81.2188 3435.06 72.75 3421.44 72.75H3405.31V118H3421.25ZM3414.69 109.938V80.8125H3420.94C3429.5 80.8125 3434 85.25 3434 95.3125C3434 105.469 3429.5 109.938 3420.88 109.938H3414.69ZM3448.38 108.5C3448.41 115.219 3453.19 118.656 3459.69 118.625C3464.72 118.656 3467.97 116.438 3469.62 113.312H3469.88V118H3478.62V95.125C3478.66 86.9375 3471.66 83.625 3464.25 83.625C3455.25 83.625 3450.12 88.25 3449.56 94.125H3458.38C3458.88 91.8125 3460.84 90.4062 3464 90.375C3467.47 90.4062 3469.41 92.0312 3469.44 94.875V97.625C3468 97.6875 3463.44 97.9062 3461 98.0625C3454.47 98.4688 3448.41 100.938 3448.38 108.5ZM3457.25 108.25C3457.25 105.625 3459.28 104.094 3462.5 103.812C3464.06 103.688 3468.03 103.469 3469.44 103.406V105.875C3469.47 109.469 3466.53 112.219 3462.31 112.25C3459.34 112.219 3457.25 110.844 3457.25 108.25ZM3485.69 118H3494.94V98.6875C3494.91 94.5312 3498 91.625 3502.19 91.625C3503.47 91.625 3505.25 91.8438 3506.12 92.125V83.875C3505.31 83.6875 3504.12 83.5625 3503.19 83.5625C3499.38 83.5625 3496.22 85.7812 3495 89.9375H3494.62V84.0625H3485.69V118ZM3530.19 84.0625H3523.81V75.9375H3514.56V84.0625H3509.88V91H3514.56V108.875C3514.5 115.469 3519.06 118.469 3525.75 118.438C3528.03 118.469 3529.69 118.281 3530.69 118.125V110.812C3529.56 110.906 3527.94 111 3527 111C3525.12 110.938 3523.78 110.281 3523.81 107.562V91H3530.19V84.0625Z" fill="white"/>
<path d="M3616.38 87.3125H3625.88C3624.62 78.4062 3616.78 72.125 3606.56 72.125C3594.62 72.125 3585.44 80.75 3585.44 95.4375C3585.44 109.75 3594.06 118.625 3606.75 118.625C3618.16 118.625 3626.31 111.375 3626.31 99.5V93.875H3607.44V100.938H3617.25C3617.12 106.625 3613.28 110.281 3606.81 110.312C3599.59 110.281 3595 104.875 3595 95.3125C3595 85.8125 3599.75 80.4688 3606.75 80.4375C3611.69 80.4688 3615.09 83.0625 3616.38 87.3125ZM3648.25 118.688C3658.53 118.656 3664.91 111.625 3664.94 101.125C3664.91 90.6562 3658.53 83.625 3648.25 83.625C3638 83.625 3631.59 90.6562 3631.62 101.125C3631.59 111.625 3638 118.656 3648.25 118.688ZM3641 101.125C3641 95.1562 3643.47 90.6875 3648.31 90.6875C3653.03 90.6875 3655.53 95.1562 3655.5 101.125C3655.53 107.062 3653.03 111.469 3648.31 111.5C3643.47 111.469 3641 107.062 3641 101.125Z" fill="white"/>
<path d="M3759.06 72.75H3749.75V101.5H3749.31L3729.56 72.75H3721.31V118H3730.69V89.25H3731.06L3750.94 118H3759.06V72.75ZM3781.88 118.688C3790.25 118.656 3795.88 114.594 3797.19 108.312H3788.38C3787.47 110.344 3785.22 111.719 3782.06 111.75C3777.28 111.719 3774.25 108.562 3774.25 103.438H3797.44V100.812C3797.44 89.25 3790.41 83.625 3781.5 83.625C3771.56 83.625 3765.09 90.7188 3765.12 101.188C3765.09 111.938 3771.47 118.656 3781.88 118.688ZM3774.25 97.625C3774.44 93.7188 3777.44 90.5312 3781.69 90.5625C3785.81 90.5312 3788.66 93.5 3788.69 97.625H3774.25ZM3822.62 94.125H3831.31C3830.81 87.6875 3825.5 83.625 3816.94 83.625C3808.19 83.625 3802.59 87.6875 3802.62 94.1875C3802.59 99.2188 3805.91 102.531 3812.38 103.812L3818 104.938C3821.19 105.594 3822.62 106.688 3822.62 108.438C3822.62 110.625 3820.38 111.969 3817 112C3813.59 111.969 3811.44 110.594 3811 107.938H3801.69C3802.47 114.562 3807.84 118.656 3817 118.688C3826.03 118.656 3832.03 114.188 3832.06 107.5C3832.03 102.625 3828.84 99.6875 3822.25 98.3125L3816.19 97.0625C3812.97 96.4062 3811.78 95.2188 3811.81 93.6875C3811.78 91.625 3814.06 90.2188 3817.06 90.1875C3820.16 90.2188 3822.22 91.75 3822.62 94.125ZM3855.62 84.0625H3849.25V75.9375H3840V84.0625H3835.31V91H3840V108.875C3839.94 115.469 3844.5 118.469 3851.19 118.438C3853.47 118.469 3855.12 118.281 3856.12 118.125V110.812C3855 110.906 3853.38 111 3852.44 111C3850.56 110.938 3849.22 110.281 3849.25 107.562V91H3855.62V84.0625ZM3861.44 84.0625V119.562C3861.44 122.156 3860.31 123.469 3857.31 123.5C3856.91 123.469 3856.53 123.469 3856.06 123.438V130.688L3857.94 130.75C3865.88 130.719 3870.66 127.531 3870.69 119.688V84.0625H3861.44ZM3860.94 74.9375C3860.94 77.5 3863.22 79.625 3866 79.625C3868.75 79.625 3871.03 77.5 3871 74.9375C3871.03 72.3125 3868.75 70.2188 3866 70.1875C3863.22 70.2188 3860.94 72.3125 3860.94 74.9375ZM3897.25 94.125H3905.94C3905.44 87.6875 3900.12 83.625 3891.56 83.625C3882.81 83.625 3877.22 87.6875 3877.25 94.1875C3877.22 99.2188 3880.53 102.531 3887 103.812L3892.62 104.938C3895.81 105.594 3897.25 106.688 3897.25 108.438C3897.25 110.625 3895 111.969 3891.62 112C3888.22 111.969 3886.06 110.594 3885.62 107.938H3876.31C3877.09 114.562 3882.47 118.656 3891.62 118.688C3900.66 118.656 3906.66 114.188 3906.69 107.5C3906.66 102.625 3903.47 99.6875 3896.88 98.3125L3890.81 97.0625C3887.59 96.4062 3886.41 95.2188 3886.44 93.6875C3886.41 91.625 3888.69 90.2188 3891.69 90.1875C3894.78 90.2188 3896.84 91.75 3897.25 94.125Z" fill="white"/>
<path d="M3993.38 87.3125H4002.88C4001.62 78.4062 3993.78 72.125 3983.56 72.125C3971.62 72.125 3962.44 80.75 3962.44 95.4375C3962.44 109.75 3971.06 118.625 3983.75 118.625C3995.16 118.625 4003.31 111.375 4003.31 99.5V93.875H3984.44V100.938H3994.25C3994.12 106.625 3990.28 110.281 3983.81 110.312C3976.59 110.281 3972 104.875 3972 95.3125C3972 85.8125 3976.75 80.4688 3983.75 80.4375C3988.69 80.4688 3992.09 83.0625 3993.38 87.3125ZM4010 118H4019.25V98.6875C4019.22 94.5312 4022.31 91.625 4026.5 91.625C4027.78 91.625 4029.56 91.8438 4030.44 92.125V83.875C4029.62 83.6875 4028.44 83.5625 4027.5 83.5625C4023.69 83.5625 4020.53 85.7812 4019.31 89.9375H4018.94V84.0625H4010V118ZM4032.38 108.5C4032.41 115.219 4037.19 118.656 4043.69 118.625C4048.72 118.656 4051.97 116.438 4053.62 113.312H4053.88V118H4062.62V95.125C4062.66 86.9375 4055.66 83.625 4048.25 83.625C4039.25 83.625 4034.12 88.25 4033.56 94.125H4042.38C4042.88 91.8125 4044.84 90.4062 4048 90.375C4051.47 90.4062 4053.41 92.0312 4053.44 94.875V97.625C4052 97.6875 4047.44 97.9062 4045 98.0625C4038.47 98.4688 4032.41 100.938 4032.38 108.5ZM4041.25 108.25C4041.25 105.625 4043.28 104.094 4046.5 103.812C4048.06 103.688 4052.03 103.469 4053.44 103.406V105.875C4053.47 109.469 4050.53 112.219 4046.31 112.25C4043.34 112.219 4041.25 110.844 4041.25 108.25ZM4069.69 130.75H4078.94V112.562H4079.19C4080.5 115.375 4083.34 118.562 4088.88 118.562C4096.62 118.562 4102.66 112.406 4102.62 101.062C4102.66 89.4375 4096.38 83.625 4088.88 83.625C4083.16 83.625 4080.47 87 4079.19 89.75H4078.81V84.0625H4069.69V130.75ZM4078.75 101C4078.72 94.9062 4081.31 91 4085.94 91C4090.72 91 4093.22 95.0938 4093.19 101C4093.22 107 4090.66 111.156 4085.94 111.188C4081.34 111.156 4078.72 107.125 4078.75 101ZM4117.88 98.375C4117.88 93.9062 4120.59 91.3125 4124.5 91.3125C4128.38 91.3125 4130.62 93.7812 4130.62 98V118H4139.88V96.375C4139.88 88.4062 4135.22 83.625 4128.12 83.625C4122.97 83.625 4119.56 86.0312 4118 90H4117.62V72.75H4108.62V118H4117.88V98.375ZM4164.19 102.312L4170.09 110.031C4169.28 110.219 4168.41 110.312 4167.5 110.312C4160.47 110.281 4155.88 105.031 4155.88 95.375C4155.88 85.6875 4160.47 80.4688 4167.5 80.4375C4174.47 80.4688 4179.09 85.6875 4179.06 95.375C4179.09 100.375 4177.84 104.219 4175.69 106.719L4172.25 102.312H4164.19ZM4146.31 95.375C4146.31 110.094 4155.44 118.625 4167.5 118.625C4170.31 118.625 4173 118.156 4175.44 117.25L4179.06 121.75H4187.88L4181.44 113.625C4185.88 109.656 4188.62 103.469 4188.62 95.375C4188.62 80.5938 4179.47 72.125 4167.5 72.125C4155.44 72.125 4146.31 80.5938 4146.31 95.375ZM4195.44 118H4224.31V110.25H4204.81V72.75H4195.44V118Z" fill="white"/>
<path d="M4281.31 118H4290.69V99.25H4309.19V91.5H4290.69V80.5H4311.12V72.75H4281.31V118ZM4317.12 118H4326.38V84.0625H4317.12V118ZM4316.69 74.9375C4316.69 77.5 4318.97 79.625 4321.75 79.625C4324.5 79.625 4326.78 77.5 4326.75 74.9375C4326.78 72.3125 4324.5 70.2188 4321.75 70.1875C4318.97 70.2188 4316.69 72.3125 4316.69 74.9375ZM4333.56 118H4342.81V98.6875C4342.78 94.5312 4345.88 91.625 4350.06 91.625C4351.34 91.625 4353.12 91.8438 4354 92.125V83.875C4353.19 83.6875 4352 83.5625 4351.06 83.5625C4347.25 83.5625 4344.09 85.7812 4342.88 89.9375H4342.5V84.0625H4333.56V118ZM4372.81 118.688C4381.19 118.656 4386.81 114.594 4388.12 108.312H4379.31C4378.41 110.344 4376.16 111.719 4373 111.75C4368.22 111.719 4365.19 108.562 4365.19 103.438H4388.38V100.812C4388.38 89.25 4381.34 83.625 4372.44 83.625C4362.5 83.625 4356.03 90.7188 4356.06 101.188C4356.03 111.938 4362.41 118.656 4372.81 118.688ZM4365.19 97.625C4365.38 93.7188 4368.38 90.5312 4372.62 90.5625C4376.75 90.5312 4379.59 93.5 4379.62 97.625H4365.19ZM4394.38 118H4403.5V112.562H4403.88C4405.22 115.375 4408.03 118.562 4413.56 118.562C4421.31 118.562 4427.34 112.406 4427.38 101.062C4427.34 89.4375 4421.06 83.625 4413.56 83.625C4407.84 83.625 4405.16 87 4403.88 89.75H4403.62V72.75H4394.38V118ZM4403.44 101C4403.41 94.9062 4406.03 91 4410.62 91C4415.41 91 4417.91 95.0938 4417.88 101C4417.91 107 4415.34 111.156 4410.62 111.188C4406.06 111.156 4403.41 107.125 4403.44 101ZM4431.69 108.5C4431.72 115.219 4436.5 118.656 4443 118.625C4448.03 118.656 4451.28 116.438 4452.94 113.312H4453.19V118H4461.94V95.125C4461.97 86.9375 4454.97 83.625 4447.56 83.625C4438.56 83.625 4433.44 88.25 4432.88 94.125H4441.69C4442.19 91.8125 4444.16 90.4062 4447.31 90.375C4450.78 90.4062 4452.72 92.0312 4452.75 94.875V97.625C4451.31 97.6875 4446.75 97.9062 4444.31 98.0625C4437.78 98.4688 4431.72 100.938 4431.69 108.5ZM4440.56 108.25C4440.56 105.625 4442.59 104.094 4445.81 103.812C4447.38 103.688 4451.34 103.469 4452.75 103.406V105.875C4452.78 109.469 4449.84 112.219 4445.62 112.25C4442.66 112.219 4440.56 110.844 4440.56 108.25ZM4488.38 94.125H4497.06C4496.56 87.6875 4491.25 83.625 4482.69 83.625C4473.94 83.625 4468.34 87.6875 4468.38 94.1875C4468.34 99.2188 4471.66 102.531 4478.12 103.812L4483.75 104.938C4486.94 105.594 4488.38 106.688 4488.38 108.438C4488.38 110.625 4486.12 111.969 4482.75 112C4479.34 111.969 4477.19 110.594 4476.75 107.938H4467.44C4468.22 114.562 4473.59 118.656 4482.75 118.688C4491.78 118.656 4497.78 114.188 4497.81 107.5C4497.78 102.625 4494.59 99.6875 4488 98.3125L4481.94 97.0625C4478.72 96.4062 4477.53 95.2188 4477.56 93.6875C4477.53 91.625 4479.81 90.2188 4482.81 90.1875C4485.91 90.2188 4487.97 91.75 4488.38 94.125ZM4518.88 118.688C4527.25 118.656 4532.88 114.594 4534.19 108.312H4525.38C4524.47 110.344 4522.22 111.719 4519.06 111.75C4514.28 111.719 4511.25 108.562 4511.25 103.438H4534.44V100.812C4534.44 89.25 4527.41 83.625 4518.5 83.625C4508.56 83.625 4502.09 90.7188 4502.12 101.188C4502.09 111.938 4508.47 118.656 4518.88 118.688ZM4511.25 97.625C4511.44 93.7188 4514.44 90.5312 4518.69 90.5625C4522.81 90.5312 4525.66 93.5 4525.69 97.625H4511.25Z" fill="white"/>
<path d="M4607.25 118C4621.06 118 4629.41 109.469 4629.38 95.3125C4629.41 81.2188 4621.06 72.75 4607.44 72.75H4591.31V118H4607.25ZM4600.69 109.938V80.8125H4606.94C4615.5 80.8125 4620 85.25 4620 95.3125C4620 105.469 4615.5 109.938 4606.88 109.938H4600.69ZM4651.25 118.688C4661.53 118.656 4667.91 111.625 4667.94 101.125C4667.91 90.6562 4661.53 83.625 4651.25 83.625C4641 83.625 4634.59 90.6562 4634.62 101.125C4634.59 111.625 4641 118.656 4651.25 118.688ZM4644 101.125C4644 95.1562 4646.47 90.6875 4651.31 90.6875C4656.03 90.6875 4658.53 95.1562 4658.5 101.125C4658.53 107.062 4656.03 111.469 4651.31 111.5C4646.47 111.469 4644 107.062 4644 101.125ZM4689 118.688C4698 118.656 4703.66 113.375 4704.06 105.688H4695.38C4694.78 109.281 4692.38 111.312 4689.12 111.312C4684.62 111.312 4681.75 107.562 4681.75 101C4681.75 94.5625 4684.69 90.8438 4689.12 90.8125C4692.62 90.8438 4694.81 93.1562 4695.38 96.5H4704.06C4703.69 88.7188 4697.75 83.625 4689 83.625C4678.72 83.625 4672.34 90.75 4672.38 101.125C4672.34 111.469 4678.59 118.656 4689 118.688ZM4709.81 118H4719.06V107.125L4721.66 104.188L4731 118H4741.88L4728.53 98.75L4741.19 84.0625H4730.56L4719.56 97.0625H4719.06V72.75H4709.81V118ZM4759.44 118.688C4767.81 118.656 4773.44 114.594 4774.75 108.312H4765.94C4765.03 110.344 4762.78 111.719 4759.62 111.75C4754.84 111.719 4751.81 108.562 4751.81 103.438H4775V100.812C4775 89.25 4767.97 83.625 4759.06 83.625C4749.12 83.625 4742.66 90.7188 4742.69 101.188C4742.66 111.938 4749.03 118.656 4759.44 118.688ZM4751.81 97.625C4752 93.7188 4755 90.5312 4759.25 90.5625C4763.38 90.5312 4766.22 93.5 4766.25 97.625H4751.81ZM4780.81 118H4790.06V98.6875C4790.03 94.5312 4793.12 91.625 4797.31 91.625C4798.59 91.625 4800.38 91.8438 4801.25 92.125V83.875C4800.44 83.6875 4799.25 83.5625 4798.31 83.5625C4794.5 83.5625 4791.34 85.7812 4790.12 89.9375H4789.75V84.0625H4780.81V118Z" fill="white"/>
<path d="M4856.31 118H4885.19V110.25H4865.69V72.75H4856.31V118ZM4891.06 118H4900.31V84.0625H4891.06V118ZM4890.62 74.9375C4890.62 77.5 4892.91 79.625 4895.69 79.625C4898.44 79.625 4900.72 77.5 4900.69 74.9375C4900.72 72.3125 4898.44 70.2188 4895.69 70.1875C4892.91 70.2188 4890.62 72.3125 4890.62 74.9375ZM4916.75 98.375C4916.75 93.9062 4919.41 91.3125 4923.25 91.3125C4927.09 91.3125 4929.34 93.8125 4929.38 98V118H4938.56V96.375C4938.59 88.4688 4933.97 83.625 4926.88 83.625C4921.84 83.625 4918.22 86.0938 4916.69 90H4916.31V84.0625H4907.5V118H4916.75V98.375ZM4967.5 103.562C4967.5 108.188 4964.31 110.594 4960.94 110.625C4957.31 110.594 4955 108.094 4955 104.062V84.0625H4945.75V105.688C4945.75 113.625 4950.41 118.438 4957.19 118.438C4962.31 118.438 4965.97 115.812 4967.5 111.875H4967.88V118H4976.75V84.0625H4967.5V103.562ZM4991.62 84.0625H4982.06L4991.81 101L4981.69 118H4991.31L4997.94 106.188L5004.69 118H5014.19L5004 101L5013.94 84.0625H5004.38L4997.94 96L4991.62 84.0625Z" fill="white"/>
</svg>
